<svg width="35" height="34" viewBox="0 0 35 34" fill="none" xmlns="http://www.w3.org/2000/svg">
<path d="M3.5 33.25C2.5375 33.25 1.71383 32.9076 1.029 32.2227C0.344167 31.5379 0.00116667 30.7137 0 29.75V10.5C0 9.5375 0.343 8.71383 1.029 8.029C1.715 7.34417 2.53867 7.00117 3.5 7H10.5V3.5C10.5 2.5375 10.843 1.71383 11.529 1.029C12.215 0.344167 13.0387 0.00116667 14 0H21C21.9625 0 22.7867 0.343 23.4727 1.029C24.1587 1.715 24.5012 2.53867 24.5 3.5V7H31.5C32.4625 7 33.2867 7.343 33.9727 8.029C34.6587 8.715 35.0012 9.53867 35 10.5V29.75C35 30.7125 34.6576 31.5367 33.9727 32.2227C33.2879 32.9087 32.4637 33.2512 31.5 33.25H3.5ZM3.5 29.75H31.5V10.5H3.5V29.75ZM14 7H21V3.5H14V7Z" fill="black"/>
</svg>
