<svg width="35" height="30" viewBox="0 0 35 30" fill="none" xmlns="http://www.w3.org/2000/svg">
<path d="M32.3077 0H2.69231C1.97826 0 1.29346 0.283653 0.788559 0.788558C0.283653 1.29346 0 1.97826 0 2.69231V26.9231C0 27.6371 0.283653 28.3219 0.788559 28.8268C1.29346 29.3317 1.97826 29.6154 2.69231 29.6154H4.94543C5.2002 29.6155 5.44977 29.5432 5.66512 29.4071C5.88048 29.271 6.05279 29.0766 6.16202 28.8464C6.81662 27.4644 7.85011 26.2966 9.14231 25.4788C10.4345 24.661 11.9323 24.2269 13.4615 24.2269C14.9908 24.2269 16.4886 24.661 17.7808 25.4788C19.073 26.2966 20.1065 27.4644 20.7611 28.8464C20.8703 29.0766 21.0426 29.271 21.258 29.4071C21.4733 29.5432 21.7229 29.6155 21.9776 29.6154H32.3077C33.0217 29.6154 33.7065 29.3317 34.2114 28.8268C34.7163 28.3219 35 27.6371 35 26.9231V2.69231C35 1.97826 34.7163 1.29346 34.2114 0.788558C33.7065 0.283653 33.0217 0 32.3077 0ZM9.42308 17.5C9.42308 16.7013 9.65993 15.9205 10.1037 15.2564C10.5474 14.5922 11.1782 14.0746 11.9161 13.7689C12.654 13.4633 13.466 13.3833 14.2494 13.5391C15.0328 13.695 15.7524 14.0796 16.3172 14.6444C16.882 15.2092 17.2666 15.9287 17.4224 16.7121C17.5782 17.4955 17.4983 18.3075 17.1926 19.0455C16.8869 19.7834 16.3693 20.4141 15.7052 20.8579C15.0411 21.3016 14.2603 21.5385 13.4615 21.5385C12.3905 21.5385 11.3633 21.113 10.6059 20.3556C9.84856 19.5983 9.42308 18.5711 9.42308 17.5ZM32.3077 26.9231H22.7887C21.6645 24.9904 19.97 23.4529 17.9375 22.5212C18.9565 21.6138 19.6757 20.4182 19.9997 19.0928C20.3238 17.7674 20.2374 16.3748 19.7519 15.0997C19.2665 13.8245 18.405 12.727 17.2816 11.9526C16.1582 11.1782 14.826 10.7636 13.4615 10.7636C12.0971 10.7636 10.7649 11.1782 9.6415 11.9526C8.51811 12.727 7.6566 13.8245 7.17116 15.0997C6.68573 16.3748 6.5993 17.7674 6.92333 19.0928C7.24737 20.4182 7.96656 21.6138 8.98558 22.5212C6.95312 23.4529 5.25861 24.9904 4.13438 26.9231H2.69231V2.69231H32.3077V26.9231ZM5.38462 9.42308V6.73077C5.38462 6.37375 5.52644 6.03135 5.77889 5.77889C6.03135 5.52644 6.37375 5.38461 6.73077 5.38461H28.2692C28.6263 5.38461 28.9687 5.52644 29.2211 5.77889C29.4736 6.03135 29.6154 6.37375 29.6154 6.73077V22.8846C29.6154 23.2416 29.4736 23.584 29.2211 23.8365C28.9687 24.0889 28.6263 24.2308 28.2692 24.2308H25.5769C25.2199 24.2308 24.8775 24.0889 24.625 23.8365C24.3726 23.584 24.2308 23.2416 24.2308 22.8846C24.2308 22.5276 24.3726 22.1852 24.625 21.9327C24.8775 21.6803 25.2199 21.5385 25.5769 21.5385H26.9231V8.07692H8.07692V9.42308C8.07692 9.7801 7.9351 10.1225 7.68264 10.375C7.43019 10.6274 7.08779 10.7692 6.73077 10.7692C6.37375 10.7692 6.03135 10.6274 5.77889 10.375C5.52644 10.1225 5.38462 9.7801 5.38462 9.42308Z" fill="black"/>
</svg>
