<svg width="216" height="33" viewBox="0 0 216 33" fill="none" xmlns="http://www.w3.org/2000/svg">
<path d="M6.64259 32.9958L9.4646 20.7961L0 12.5905L12.5037 11.5051L17.3662 0L22.2288 11.5051L34.7325 12.5905L25.2679 20.7961L28.0899 32.9958L17.3662 26.5269L6.64259 32.9958Z" fill="#FFAA00"/>
<path d="M51.7948 32.9958L54.6168 20.7961L45.1522 12.5905L57.6559 11.5051L62.5185 0L67.381 11.5051L79.8847 12.5905L70.4201 20.7961L73.2421 32.9958L62.5185 26.5269L51.7948 32.9958Z" fill="#FFAA00"/>
<path d="M96.947 32.9958L99.769 20.7961L90.3044 12.5905L102.808 11.5051L107.671 0L112.533 11.5051L125.037 12.5905L115.572 20.7961L118.394 32.9958L107.671 26.5269L96.947 32.9958Z" fill="#FFAA00"/>
<path d="M142.099 32.9958L144.921 20.7961L135.457 12.5905L147.96 11.5051L152.823 0L157.685 11.5051L170.189 12.5905L160.725 20.7961L163.547 32.9958L152.823 26.5269L142.099 32.9958Z" fill="#FFAA00"/>
<path d="M187.251 32.9958L190.073 20.7961L180.609 12.5905L193.113 11.5051L197.975 0L202.838 11.5051L215.341 12.5905L205.877 20.7961L208.699 32.9958L197.975 26.5269L187.251 32.9958Z" fill="#FFAA00"/>
</svg>
