<svg width="35" height="39" viewBox="0 0 35 39" fill="none" xmlns="http://www.w3.org/2000/svg">
<path d="M8.75 13.125L12.25 9.625L8.75 6.125L5.25 9.625L8.75 13.125ZM3.5 22.75C2.5375 22.75 1.71383 22.4076 1.029 21.7227C0.344167 21.0379 0.00116667 20.2137 0 19.25V3.5C0 2.5375 0.343 1.71383 1.029 1.029C1.715 0.344167 2.53867 0.00116667 3.5 0H31.5C32.4625 0 33.2867 0.343 33.9727 1.029C34.6587 1.715 35.0012 2.53867 35 3.5V19.25C35 20.2125 34.6576 21.0367 33.9727 21.7227C33.2879 22.4087 32.4637 22.7512 31.5 22.75H25.8562C26.0312 22.1667 26.1479 21.5833 26.2062 21C26.2646 20.4167 26.2646 19.8333 26.2062 19.25H31.5V3.5H3.5V19.25H8.79375C8.73542 19.8333 8.73542 20.4167 8.79375 21C8.85208 21.5833 8.96875 22.1667 9.14375 22.75H3.5ZM25.375 10.5C26.1042 10.5 26.7242 10.2451 27.2352 9.73525C27.7462 9.22542 28.0012 8.60533 28 7.875C27.9988 7.14467 27.7439 6.52517 27.2352 6.0165C26.7266 5.50783 26.1065 5.25233 25.375 5.25C24.6435 5.24767 24.024 5.50317 23.5165 6.0165C23.009 6.52983 22.7535 7.14933 22.75 7.875C22.7465 8.60067 23.002 9.22075 23.5165 9.73525C24.031 10.2497 24.6505 10.5047 25.375 10.5ZM5.25 38.5V34.825C5.25 33.8042 5.53467 32.8562 6.104 31.9812C6.67333 31.1062 7.42408 30.45 8.35625 30.0125C9.78542 29.3417 11.2729 28.8388 12.8187 28.504C14.3646 28.1692 15.925 28.0012 17.5 28C19.075 27.9988 20.6354 28.1668 22.1812 28.504C23.7271 28.8412 25.2146 29.344 26.6437 30.0125C27.5771 30.45 28.3284 31.1062 28.8977 31.9812C29.4671 32.8562 29.7512 33.8042 29.75 34.825V38.5H5.25ZM8.75 35H26.25V34.825C26.25 34.475 26.1479 34.1542 25.9438 33.8625C25.7396 33.5708 25.4771 33.3521 25.1562 33.2062C23.9312 32.6521 22.6771 32.2292 21.3937 31.9375C20.1104 31.6458 18.8125 31.5 17.5 31.5C16.1875 31.5 14.8896 31.6458 13.6062 31.9375C12.3229 32.2292 11.0687 32.6521 9.84375 33.2062C9.52292 33.3521 9.26042 33.5708 9.05625 33.8625C8.85208 34.1542 8.75 34.475 8.75 34.825V35ZM17.5 26.25C15.8083 26.25 14.3646 25.6521 13.1687 24.4562C11.9729 23.2604 11.375 21.8167 11.375 20.125C11.375 18.4333 11.9729 16.9896 13.1687 15.7937C14.3646 14.5979 15.8083 14 17.5 14C19.1917 14 20.6354 14.5979 21.8312 15.7937C23.0271 16.9896 23.625 18.4333 23.625 20.125C23.625 21.8167 23.0271 23.2604 21.8312 24.4562C20.6354 25.6521 19.1917 26.25 17.5 26.25ZM17.5 22.75C18.2292 22.75 18.8492 22.4951 19.3602 21.9852C19.8712 21.4754 20.1262 20.8553 20.125 20.125C20.1238 19.3947 19.8689 18.7752 19.3602 18.2665C18.8516 17.7578 18.2315 17.5023 17.5 17.5C16.7685 17.4977 16.149 17.7532 15.6415 18.2665C15.134 18.7798 14.8785 19.3993 14.875 20.125C14.8715 20.8507 15.127 21.4707 15.6415 21.9852C16.156 22.4997 16.7755 22.7547 17.5 22.75Z" fill="black"/>
</svg>
