<svg width="18" height="30" viewBox="0 0 18 30" fill="none" xmlns="http://www.w3.org/2000/svg">
<path d="M0.473108 2.3227L14.3053 14.0042C14.6087 14.2591 14.7788 14.6032 14.7788 14.9617C14.7788 15.3202 14.6087 15.6643 14.3053 15.9192L0.476109 27.6007C0.1729 27.8572 0.00300072 28.2023 0.00300071 28.5619C0.00300069 28.9215 0.1729 29.2666 0.476109 29.5231C0.624232 29.6494 0.801268 29.7498 0.996787 29.8183C1.1923 29.8868 1.40235 29.9221 1.61454 29.9221C1.82673 29.9221 2.03678 29.8868 2.23229 29.8183C2.42781 29.7498 2.60485 29.6494 2.75297 29.5231L16.5821 17.8441C17.4909 17.0748 18 16.0398 18 14.9617C18 13.8836 17.4909 12.8486 16.5821 12.0793L2.75297 0.400291C2.6048 0.273622 2.42758 0.172933 2.23179 0.104179C2.03599 0.035424 1.82559 -6.04432e-07 1.61304 -6.12375e-07C1.40049 -6.20318e-07 1.1901 0.035424 0.994299 0.104179C0.798502 0.172933 0.621279 0.273622 0.473108 0.400291C0.169901 0.65675 1.85612e-06 1.00193 1.83774e-06 1.36149C1.81935e-06 1.72106 0.169901 2.06624 0.473108 2.3227Z" fill="black"/>
</svg>
