<svg width="35" height="35" viewBox="0 0 35 35" fill="none" xmlns="http://www.w3.org/2000/svg">
<path d="M17.5 35C15.1083 35 12.8479 34.5403 10.7187 33.621C8.58958 32.7017 6.7305 31.4475 5.1415 29.8585C3.5525 28.2695 2.29833 26.4104 1.379 24.2812C0.459667 22.1521 0 19.8917 0 17.5C0 15.0792 0.459667 12.8117 1.379 10.6977C2.29833 8.58375 3.5525 6.73167 5.1415 5.1415C6.7305 3.55133 8.58958 2.29717 10.7187 1.379C12.8479 0.460833 15.1083 0.00116667 17.5 0C19.9208 0 22.1888 0.459667 24.304 1.379C26.4192 2.29833 28.2707 3.5525 29.8585 5.1415C31.4463 6.7305 32.7005 8.58258 33.621 10.6977C34.5415 12.8129 35.0012 15.0803 35 17.5C35 19.8917 34.5403 22.1521 33.621 24.2812C32.7017 26.4104 31.4475 28.2701 29.8585 29.8602C28.2695 31.4504 26.4174 32.7046 24.3022 33.6227C22.1871 34.5409 19.9197 35 17.5 35ZM17.5 31.4125C18.2583 30.3625 18.9146 29.2687 19.4687 28.1312C20.0229 26.9937 20.475 25.7833 20.825 24.5H14.175C14.525 25.7833 14.9771 26.9937 15.5312 28.1312C16.0854 29.2687 16.7417 30.3625 17.5 31.4125ZM12.95 30.7125C12.425 29.75 11.9659 28.7507 11.5727 27.7147C11.1796 26.6787 10.8512 25.6072 10.5875 24.5H5.425C6.27083 25.9583 7.32842 27.2271 8.59775 28.3062C9.86708 29.3854 11.3178 30.1875 12.95 30.7125ZM22.05 30.7125C23.6833 30.1875 25.1347 29.3854 26.404 28.3062C27.6733 27.2271 28.7303 25.9583 29.575 24.5H24.4125C24.15 25.6083 23.8222 26.6805 23.429 27.7165C23.0358 28.7525 22.5762 29.7512 22.05 30.7125ZM3.9375 21H9.8875C9.8 20.4167 9.73467 19.8409 9.6915 19.2727C9.64833 18.7046 9.62617 18.1137 9.625 17.5C9.62383 16.8863 9.646 16.296 9.6915 15.729C9.737 15.162 9.80233 14.5857 9.8875 14H3.9375C3.79167 14.5833 3.68258 15.1597 3.61025 15.729C3.53792 16.2983 3.50117 16.8887 3.5 17.5C3.49883 18.1113 3.53558 18.7022 3.61025 19.2727C3.68492 19.8432 3.794 20.419 3.9375 21ZM13.3875 21H21.6125C21.7 20.4167 21.7659 19.8409 21.8102 19.2727C21.8546 18.7046 21.8762 18.1137 21.875 17.5C21.8738 16.8863 21.8517 16.296 21.8085 15.729C21.7653 15.162 21.7 14.5857 21.6125 14H13.3875C13.3 14.5833 13.2347 15.1597 13.1915 15.729C13.1483 16.2983 13.1262 16.8887 13.125 17.5C13.1238 18.1113 13.146 18.7022 13.1915 19.2727C13.237 19.8432 13.3023 20.419 13.3875 21ZM25.1125 21H31.0625C31.2083 20.4167 31.318 19.8409 31.3915 19.2727C31.465 18.7046 31.5012 18.1137 31.5 17.5C31.4988 16.8863 31.4627 16.296 31.3915 15.729C31.3203 15.162 31.2107 14.5857 31.0625 14H25.1125C25.2 14.5833 25.2659 15.1597 25.3102 15.729C25.3546 16.2983 25.3762 16.8887 25.375 17.5C25.3738 18.1113 25.3517 18.7022 25.3085 19.2727C25.2653 19.8432 25.2 20.419 25.1125 21ZM24.4125 10.5H29.575C28.7292 9.04167 27.6722 7.77292 26.404 6.69375C25.1358 5.61458 23.6845 4.8125 22.05 4.2875C22.575 5.25 23.0347 6.24925 23.429 7.28525C23.8233 8.32125 24.1512 9.39283 24.4125 10.5ZM14.175 10.5H20.825C20.475 9.21667 20.0229 8.00625 19.4687 6.86875C18.9146 5.73125 18.2583 4.6375 17.5 3.5875C16.7417 4.6375 16.0854 5.73125 15.5312 6.86875C14.9771 8.00625 14.525 9.21667 14.175 10.5ZM5.425 10.5H10.5875C10.85 9.39166 11.1784 8.3195 11.5727 7.2835C11.9671 6.2475 12.4262 5.24883 12.95 4.2875C11.3167 4.8125 9.86533 5.61458 8.596 6.69375C7.32667 7.77292 6.26967 9.04167 5.425 10.5Z" fill="white"/>
</svg>
