<svg width="40" height="32" viewBox="0 0 40 32" fill="none" xmlns="http://www.w3.org/2000/svg">
<path d="M40 3.76471C38.5277 4.42353 36.9407 4.85647 35.2964 5.06353C36.979 4.06588 38.2792 2.48471 38.891 0.583529C37.304 1.52471 35.5449 2.18353 33.6903 2.56C32.1797 0.941177 30.0574 0 27.6482 0C23.1549 0 19.4837 3.61412 19.4837 8.07529C19.4837 8.71529 19.5602 9.33647 19.6941 9.92C12.8872 9.58118 6.826 6.36235 2.79159 1.48706C2.08413 2.67294 1.6826 4.06588 1.6826 5.53412C1.6826 8.33882 3.11664 10.8235 5.33461 12.2353C3.97706 12.2353 2.71511 11.8588 1.60612 11.2941V11.3506C1.60612 15.2659 4.43595 18.5412 8.18356 19.2753C6.98057 19.6008 5.71709 19.6459 4.49331 19.4071C5.01263 21.0117 6.02971 22.4158 7.40156 23.422C8.77342 24.4281 10.4311 24.9858 12.1415 25.0165C9.2422 27.2763 5.6482 28.4977 1.95029 28.48C1.30019 28.48 0.650096 28.4424 0 28.3671C3.63289 30.6635 7.95411 32 12.5813 32C27.6482 32 35.9273 19.6894 35.9273 9.01647C35.9273 8.65882 35.9273 8.32 35.9082 7.96235C37.5143 6.83294 38.891 5.40235 40 3.76471Z" fill="white"/>
</svg>
